<?xml version="1.0" encoding="UTF-8" standalone="no"?>
<!-- Created with Inkscape (http://www.inkscape.org/) -->

<svg
   version="1.1"
   id="svg1"
   width="96.433334"
   height="96.433334"
   viewBox="0 0 96.433334 96.433334"
   sodipodi:docname="gauge_body.svg"
   inkscape:version="1.3 (0e150ed6c4, 2023-07-21)"
   xmlns:inkscape="http://www.inkscape.org/namespaces/inkscape"
   xmlns:sodipodi="http://sodipodi.sourceforge.net/DTD/sodipodi-0.dtd"
   xmlns="http://www.w3.org/2000/svg"
   xmlns:svg="http://www.w3.org/2000/svg">
  <defs
     id="defs1">
    <radialGradient
       fx="40.000519"
       fy="60.000759"
       cx="50.000641"
       cy="50.000641"
       r="50.000641"
       gradientUnits="userSpaceOnUse"
       id="radialGradient5">
      <stop
         style="stop-opacity:1;stop-color:#ffffd9"
         offset="0"
         id="stop1" />
      <stop
         style="stop-opacity:1;stop-color:#ffff40"
         offset="0.1799995"
         id="stop2" />
      <stop
         style="stop-opacity:1;stop-color:#b3b300"
         offset="0.35999959"
         id="stop3" />
      <stop
         style="stop-opacity:1;stop-color:#808000"
         offset="0.5"
         id="stop4" />
      <stop
         style="stop-opacity:1;stop-color:#000000"
         offset="1"
         id="stop5" />
    </radialGradient>
    <clipPath
       clipPathUnits="userSpaceOnUse"
       id="clipPath6">
      <path
         d="M 29.76422,0 C 29.7642,8.21878 26.43246,15.66061 21.04654,21.04654 15.66061,26.43246 8.21878,29.7642 0,29.76422 -8.21878,29.7642 -15.66061,26.43246 -21.04654,21.04654 -26.43246,15.66061 -29.7642,8.21878 -29.76422,0 c 2e-5,-8.21878 3.33176,-15.66061 8.71768,-21.04654 5.38593,-5.38592 12.82776,-8.71766 21.04654,-8.71768 8.21878,2e-5 15.66061,3.33176 21.04654,8.71768 C 26.43246,-15.66061 29.7642,-8.21878 29.76422,0 Z M 0,-4.96075 c 6.70168,0 11.21896,-0.79368 14.72693,-4.30164 l 3.1696,-3.16981 1.5052,4.22236 5.37172,15.06656 0.60205,1.68864 -1.26768,1.26777 C 17.36494,16.55602 10.43889,19.13417 0,19.13417 c -10.43889,0 -17.36494,-2.57815 -24.10782,-9.32104 l -1.26768,-1.26777 0.60205,-1.68864 5.37172,-15.06656 1.5052,-4.22236 3.1696,3.16981 C -11.21896,-5.75443 -6.70168,-4.96075 0,-4.96075"
         transform="matrix(1.3333333,0,0,-1.3333333,48.217333,48.216)"
         clip-rule="evenodd"
         id="path6" />
    </clipPath>
    <radialGradient
       fx="40.000519"
       fy="60.000759"
       cx="50.000641"
       cy="50.000641"
       r="50.000641"
       gradientUnits="userSpaceOnUse"
       id="radialGradient11">
      <stop
         style="stop-opacity:1;stop-color:#e2e2e2"
         offset="0"
         id="stop7" />
      <stop
         style="stop-opacity:1;stop-color:#707070"
         offset="0.1799995"
         id="stop8" />
      <stop
         style="stop-opacity:1;stop-color:#2d2d2d"
         offset="0.35999959"
         id="stop9" />
      <stop
         style="stop-opacity:1;stop-color:#202020"
         offset="0.5"
         id="stop10" />
      <stop
         style="stop-opacity:1;stop-color:#000000"
         offset="1"
         id="stop11" />
    </radialGradient>
    <clipPath
       clipPathUnits="userSpaceOnUse"
       id="clipPath12">
      <path
         d="m 26.92938,0 c 0,7.43689 -3.01384,14.16846 -7.88738,19.042 C 14.16846,23.91554 7.43689,26.92938 0,26.92938 c -7.43689,0 -14.16846,-3.01384 -19.042,-7.88738 C -23.91554,14.16846 -26.92938,7.43689 -26.92938,0 c 0,-7.43689 3.01384,-14.16846 7.88738,-19.042 4.87354,-4.87354 11.60511,-7.88738 19.042,-7.88738 7.43689,0 14.16846,3.01384 19.042,7.88738 4.87354,4.87354 7.88738,11.60511 7.88738,19.042 z M 0,-2.12592 c 7.69861,0 12.74687,-1.14735 16.73146,-5.13194 l 5.37189,15.0665 C 15.92033,13.99155 9.55447,16.29935 0,16.29935 c -9.55447,0 -15.92033,-2.3078 -22.10329,-8.49075 l 5.37166,-15.06652 c 3.98476,3.98465 9.03302,5.132 16.73163,5.132"
         transform="matrix(1.3333333,0,0,-1.3333333,48.217333,48.216)"
         clip-rule="evenodd"
         id="path12" />
    </clipPath>
    <radialGradient
       fx="40.000519"
       fy="60.000759"
       cx="50.000641"
       cy="50.000641"
       r="50.000641"
       gradientUnits="userSpaceOnUse"
       id="radialGradient17">
      <stop
         style="stop-opacity:1;stop-color:#ffffd9"
         offset="0"
         id="stop13" />
      <stop
         style="stop-opacity:1;stop-color:#ffff40"
         offset="0.1799995"
         id="stop14" />
      <stop
         style="stop-opacity:1;stop-color:#b3b300"
         offset="0.35999959"
         id="stop15" />
      <stop
         style="stop-opacity:1;stop-color:#808000"
         offset="0.5"
         id="stop16" />
      <stop
         style="stop-opacity:1;stop-color:#000000"
         offset="1"
         id="stop17" />
    </radialGradient>
    <clipPath
       clipPathUnits="userSpaceOnUse"
       id="clipPath18">
      <path
         d="m 0,-4.96075 c 6.70168,0 11.21896,-0.79368 14.72693,-4.30164 l 1.58485,-1.58485 c 0.55353,-0.55353 1.45099,-0.55353 2.00453,0 0.14852,0.14852 0.26224,0.32846 0.33279,0.5263 l 0.75263,2.1111 5.37172,15.06656 0.30101,0.84431 c 0.18381,0.51558 0.05428,1.09117 -0.33278,1.47823 L 24.10782,9.81313 C 17.36494,16.55602 10.43889,19.13417 0,19.13417 c -10.43889,0 -17.36494,-2.57815 -24.10782,-9.32104 L -24.74168,9.17926 C -25.12874,8.7922 -25.25827,8.21661 -25.07446,7.70103 l 0.30101,-0.84431 5.37172,-15.06656 0.75263,-2.1111 c 0.26288,-0.73732 1.07369,-1.12196 1.81101,-0.85908 0.19786,0.07052 0.37779,0.18425 0.52631,0.33278 l 1.58485,1.58485 C -11.21896,-5.75443 -6.70168,-4.96075 0,-4.96075 Z m 0,0 c 6.70168,0 11.21896,-0.79368 14.72693,-4.30164 l 1.58485,-1.58485 c 0.55353,-0.55353 1.45099,-0.55353 2.00453,0 0.14852,0.14852 0.26224,0.32846 0.33279,0.5263 l 0.75263,2.1111 5.37172,15.06656 0.30101,0.84431 c 0.18381,0.51558 0.05428,1.09117 -0.33278,1.47823 L 24.10782,9.81313 C 17.36494,16.55602 10.43889,19.13417 0,19.13417 c -10.43889,0 -17.36494,-2.57815 -24.10782,-9.32104 L -24.74168,9.17926 C -25.12874,8.7922 -25.25827,8.21661 -25.07446,7.70103 l 0.30101,-0.84431 5.37172,-15.06656 0.75263,-2.1111 c 0.26288,-0.73732 1.07369,-1.12196 1.81101,-0.85908 0.19786,0.07052 0.37779,0.18425 0.52631,0.33278 l 1.58485,1.58485 C -11.21896,-5.75443 -6.70168,-4.96075 0,-4.96075 Z"
         transform="matrix(1.3333333,0,0,-1.3333333,48.217333,48.216)"
         id="path18" />
    </clipPath>
  </defs>
  <sodipodi:namedview
     id="namedview1"
     pagecolor="#ffffff"
     bordercolor="#666666"
     borderopacity="1.0"
     inkscape:showpageshadow="2"
     inkscape:pageopacity="0.0"
     inkscape:pagecheckerboard="0"
     inkscape:deskcolor="#d1d1d1"
     inkscape:zoom="4.8012443"
     inkscape:cx="48.112528"
     inkscape:cy="48.216667"
     inkscape:window-width="1366"
     inkscape:window-height="709"
     inkscape:window-x="0"
     inkscape:window-y="0"
     inkscape:window-maximized="1"
     inkscape:current-layer="g1">
    <inkscape:page
       x="0"
       y="0"
       inkscape:label="1"
       id="page1"
       width="96.433334"
       height="96.433334"
       margin="0"
       bleed="0" />
  </sodipodi:namedview>
  <g
     id="g1"
     inkscape:groupmode="layer"
     inkscape:label="1">
    <g
       id="g5"
       clip-path="url(#clipPath6)">
      <path
         d="M 0,0 H 100 V 100 H 0 Z"
         transform="matrix(1.5876,0,0,-1.5876,-31.162667,127.596)"
         style="fill:url(#radialGradient5);stroke:none"
         id="path5" />
    </g>
    <path
       id="path7"
       d="M 29.76422,0 C 29.7642,8.21878 26.43246,15.66061 21.04654,21.04654 15.66061,26.43246 8.21878,29.7642 0,29.76422 -8.21878,29.7642 -15.66061,26.43246 -21.04654,21.04654 -26.43246,15.66061 -29.7642,8.21878 -29.76422,0 c 2e-5,-8.21878 3.33176,-15.66061 8.71768,-21.04654 5.38593,-5.38592 12.82776,-8.71766 21.04654,-8.71768 8.21878,2e-5 15.66061,3.33176 21.04654,8.71768 C 26.43246,-15.66061 29.7642,-8.21878 29.76422,0 Z M 0,-4.96075 c 6.70168,0 11.21896,-0.79368 14.72693,-4.30164 l 3.1696,-3.16981 1.5052,4.22236 5.37172,15.06656 0.60205,1.68864 -1.26768,1.26777 C 17.36494,16.55602 10.43889,19.13417 0,19.13417 c -10.43889,0 -17.36494,-2.57815 -24.10782,-9.32104 l -1.26768,-1.26777 0.60205,-1.68864 5.37172,-15.06656 1.5052,-4.22236 3.1696,3.16981 C -11.21896,-5.75443 -6.70168,-4.96075 0,-4.96075"
       style="fill:none;stroke:#000000;stroke-width:0.3985;stroke-linecap:butt;stroke-linejoin:miter;stroke-miterlimit:10;stroke-dasharray:none;stroke-opacity:1"
       transform="matrix(1.3333333,0,0,-1.3333333,48.217333,48.216)" />
    <g
       id="g11"
       clip-path="url(#clipPath12)">
      <path
         d="M 0,0 H 100 V 100 H 0 Z"
         transform="matrix(1.512,0,0,-1.512,-27.382667,123.816)"
         style="fill:url(#radialGradient11);stroke:none"
         id="path11" />
    </g>
    <path
       id="path13"
       d="m 26.92938,0 c 0,7.43689 -3.01384,14.16846 -7.88738,19.042 C 14.16846,23.91554 7.43689,26.92938 0,26.92938 c -7.43689,0 -14.16846,-3.01384 -19.042,-7.88738 C -23.91554,14.16846 -26.92938,7.43689 -26.92938,0 c 0,-7.43689 3.01384,-14.16846 7.88738,-19.042 4.87354,-4.87354 11.60511,-7.88738 19.042,-7.88738 7.43689,0 14.16846,3.01384 19.042,7.88738 4.87354,4.87354 7.88738,11.60511 7.88738,19.042 z M 0,-2.12592 c 7.69861,0 12.74687,-1.14735 16.73146,-5.13194 l 5.37189,15.0665 C 15.92033,13.99155 9.55447,16.29935 0,16.29935 c -9.55447,0 -15.92033,-2.3078 -22.10329,-8.49075 l 5.37166,-15.06652 c 3.98476,3.98465 9.03302,5.132 16.73163,5.132"
       style="fill:none;stroke:#000000;stroke-width:0.3985;stroke-linecap:butt;stroke-linejoin:miter;stroke-miterlimit:10;stroke-dasharray:none;stroke-opacity:1"
       transform="matrix(1.3333333,0,0,-1.3333333,48.217333,48.216)" />
    <g
       id="g17"
       clip-path="url(#clipPath18)">
      <path
         d="M 0,0 H 100 V 100 H 0 Z"
         transform="matrix(1.3472667,0,0,-0.81546667,-19.146,83.861813)"
         style="fill:url(#radialGradient17);stroke:none"
         id="path17" />
    </g>
    <path
       id="path19"
       d="m 0,-4.96075 c 6.70168,0 11.21896,-0.79368 14.72693,-4.30164 l 1.58485,-1.58485 c 0.55353,-0.55353 1.45099,-0.55353 2.00453,0 0.14852,0.14852 0.26224,0.32846 0.33279,0.5263 l 0.75263,2.1111 5.37172,15.06656 0.30101,0.84431 c 0.18381,0.51558 0.05428,1.09117 -0.33278,1.47823 L 24.10782,9.81313 C 17.36494,16.55602 10.43889,19.13417 0,19.13417 c -10.43889,0 -17.36494,-2.57815 -24.10782,-9.32104 L -24.74168,9.17926 C -25.12874,8.7922 -25.25827,8.21661 -25.07446,7.70103 l 0.30101,-0.84431 5.37172,-15.06656 0.75263,-2.1111 c 0.26288,-0.73732 1.07369,-1.12196 1.81101,-0.85908 0.19786,0.07052 0.37779,0.18425 0.52631,0.33278 l 1.58485,1.58485 C -11.21896,-5.75443 -6.70168,-4.96075 0,-4.96075 Z m 0,0 c 6.70168,0 11.21896,-0.79368 14.72693,-4.30164 l 1.58485,-1.58485 c 0.55353,-0.55353 1.45099,-0.55353 2.00453,0 0.14852,0.14852 0.26224,0.32846 0.33279,0.5263 l 0.75263,2.1111 5.37172,15.06656 0.30101,0.84431 c 0.18381,0.51558 0.05428,1.09117 -0.33278,1.47823 L 24.10782,9.81313 C 17.36494,16.55602 10.43889,19.13417 0,19.13417 c -10.43889,0 -17.36494,-2.57815 -24.10782,-9.32104 L -24.74168,9.17926 C -25.12874,8.7922 -25.25827,8.21661 -25.07446,7.70103 l 0.30101,-0.84431 5.37172,-15.06656 0.75263,-2.1111 c 0.26288,-0.73732 1.07369,-1.12196 1.81101,-0.85908 0.19786,0.07052 0.37779,0.18425 0.52631,0.33278 l 1.58485,1.58485 C -11.21896,-5.75443 -6.70168,-4.96075 0,-4.96075 Z"
       style="fill:none;stroke:#000000;stroke-width:0.3985;stroke-linecap:butt;stroke-linejoin:round;stroke-miterlimit:10;stroke-dasharray:none;stroke-opacity:1"
       transform="matrix(1.3333333,0,0,-1.3333333,48.217333,48.216)" />
    <path
       id="path20"
       d="m 0,-2.12592 c 7.69861,0 12.74687,-1.14735 16.73146,-5.13194 l 5.37189,15.0665 C 15.92033,13.99155 9.55447,16.29935 0,16.29935 c -9.55447,0 -15.92033,-2.3078 -22.10329,-8.49075 l 5.37166,-15.06652 c 3.98476,3.98465 9.03302,5.132 16.73163,5.132 z m 0,0 c 7.69861,0 12.74687,-1.14735 16.73146,-5.13194 l 5.37189,15.0665 C 15.92033,13.99155 9.55447,16.29935 0,16.29935 c -9.55447,0 -15.92033,-2.3078 -22.10329,-8.49075 l 5.37166,-15.06652 c 3.98476,3.98465 9.03302,5.132 16.73163,5.132 z"
       style="fill:#ffffff;fill-opacity:1;fill-rule:nonzero;stroke:#000000;stroke-width:0.3985;stroke-linecap:butt;stroke-linejoin:round;stroke-miterlimit:10;stroke-dasharray:none;stroke-opacity:1"
       transform="matrix(1.3333333,0,0,-1.3333333,48.217333,48.216)" />
  </g>
</svg>
