<?xml version="1.0" encoding="UTF-8" standalone="no"?>
<!-- Created with Inkscape (http://www.inkscape.org/) -->

<svg
   version="1.1"
   id="svg1"
   width="96.433334"
   height="96.433334"
   viewBox="0 0 96.433334 96.433334"
   sodipodi:docname="gauge_hub.svg"
   inkscape:version="1.3 (0e150ed6c4, 2023-07-21)"
   xmlns:inkscape="http://www.inkscape.org/namespaces/inkscape"
   xmlns:sodipodi="http://sodipodi.sourceforge.net/DTD/sodipodi-0.dtd"
   xmlns="http://www.w3.org/2000/svg"
   xmlns:svg="http://www.w3.org/2000/svg">
  <defs
     id="defs1">
    <radialGradient
       fx="40.000519"
       fy="60.000759"
       cx="50.000641"
       cy="50.000641"
       r="50.000641"
       gradientUnits="userSpaceOnUse"
       id="radialGradient5">
      <stop
         style="stop-opacity:1;stop-color:#ffffd9"
         offset="0"
         id="stop1" />
      <stop
         style="stop-opacity:1;stop-color:#ffff40"
         offset="0.1799995"
         id="stop2" />
      <stop
         style="stop-opacity:1;stop-color:#b3b300"
         offset="0.35999959"
         id="stop3" />
      <stop
         style="stop-opacity:1;stop-color:#808000"
         offset="0.5"
         id="stop4" />
      <stop
         style="stop-opacity:1;stop-color:#000000"
         offset="1"
         id="stop5" />
    </radialGradient>
    <clipPath
       clipPathUnits="userSpaceOnUse"
       id="clipPath6">
      <path
         d="M 9.92111,-15.94505 C 9.9211,-13.20554 8.81053,-10.725 7.01526,-8.92973 5.22002,-7.13449 2.7395,-6.02394 0,-6.02394 c -2.7395,0 -5.22002,-1.11055 -7.01526,-2.90579 -1.79527,-1.79527 -2.90584,-4.27581 -2.90585,-7.01532 1e-5,-2.73951 1.11058,-5.22003 2.90585,-7.01529 1.79524,-1.79528 4.27576,-2.90584 7.01526,-2.90584 2.7395,0 5.22005,1.1106 7.01529,2.90587 1.79527,1.79526 2.90581,4.27575 2.90582,7.01526 z"
         transform="matrix(1.3333333,0,0,-1.3333333,48.217333,48.216)"
         clip-rule="evenodd"
         id="path6" />
    </clipPath>
    <radialGradient
       fx="40.000519"
       fy="60.000759"
       cx="50.000641"
       cy="50.000641"
       r="50.000641"
       gradientUnits="userSpaceOnUse"
       id="radialGradient11">
      <stop
         style="stop-opacity:1;stop-color:#e2e2e2"
         offset="0"
         id="stop7" />
      <stop
         style="stop-opacity:1;stop-color:#707070"
         offset="0.1799995"
         id="stop8" />
      <stop
         style="stop-opacity:1;stop-color:#2d2d2d"
         offset="0.35999959"
         id="stop9" />
      <stop
         style="stop-opacity:1;stop-color:#202020"
         offset="0.5"
         id="stop10" />
      <stop
         style="stop-opacity:1;stop-color:#000000"
         offset="1"
         id="stop11" />
    </radialGradient>
    <clipPath
       clipPathUnits="userSpaceOnUse"
       id="clipPath12">
      <path
         d="m 8.50414,-15.94505 c 0,2.34852 -0.95177,4.47435 -2.4908,6.01338 C 4.47432,-8.39265 2.34851,-7.44092 0,-7.44092 c -2.34851,0 -4.47432,-0.95173 -6.01334,-2.49075 -1.53903,-1.53903 -2.4908,-3.66486 -2.4908,-6.01338 0,-2.34853 0.95177,-4.47434 2.4908,-6.01337 1.53902,-1.53903 3.66483,-2.49078 6.01334,-2.49078 2.34851,0 4.47429,0.95172 6.0133,2.49075 1.53904,1.53903 2.49084,3.66487 2.49084,6.0134 z"
         transform="matrix(1.3333333,0,0,-1.3333333,48.217333,48.216)"
         clip-rule="evenodd"
         id="path12" />
    </clipPath>
  </defs>
  <sodipodi:namedview
     id="namedview1"
     pagecolor="#ffffff"
     bordercolor="#666666"
     borderopacity="1.0"
     inkscape:showpageshadow="2"
     inkscape:pageopacity="0.0"
     inkscape:pagecheckerboard="0"
     inkscape:deskcolor="#d1d1d1"
     inkscape:zoom="4.8012443"
     inkscape:cx="48.112528"
     inkscape:cy="48.216667"
     inkscape:window-width="1366"
     inkscape:window-height="709"
     inkscape:window-x="0"
     inkscape:window-y="0"
     inkscape:window-maximized="1"
     inkscape:current-layer="g1">
    <inkscape:page
       x="0"
       y="0"
       inkscape:label="1"
       id="page1"
       width="96.433334"
       height="96.433334"
       margin="0"
       bleed="0" />
  </sodipodi:namedview>
  <g
     id="g1"
     inkscape:groupmode="layer"
     inkscape:label="1">
    <g
       id="g5"
       clip-path="url(#clipPath6)">
      <path
         d="M 0,0 H 100 V 100 H 0 Z"
         transform="matrix(0.52917333,0,0,-0.52917333,21.758667,95.93472)"
         style="fill:url(#radialGradient5);stroke:none"
         id="path5" />
    </g>
    <path
       id="path7"
       d="M 9.92111,-15.94505 C 9.9211,-13.20554 8.81053,-10.725 7.01526,-8.92973 5.22002,-7.13449 2.7395,-6.02394 0,-6.02394 c -2.7395,0 -5.22002,-1.11055 -7.01526,-2.90579 -1.79527,-1.79527 -2.90584,-4.27581 -2.90585,-7.01532 1e-5,-2.73951 1.11058,-5.22003 2.90585,-7.01529 1.79524,-1.79528 4.27576,-2.90584 7.01526,-2.90584 2.7395,0 5.22005,1.1106 7.01529,2.90587 1.79527,1.79526 2.90581,4.27575 2.90582,7.01526 z"
       style="fill:none;stroke:#000000;stroke-width:0.3985;stroke-linecap:butt;stroke-linejoin:miter;stroke-miterlimit:10;stroke-dasharray:none;stroke-opacity:1"
       transform="matrix(1.3333333,0,0,-1.3333333,48.217333,48.216)" />
    <g
       id="g11"
       clip-path="url(#clipPath12)">
      <path
         d="M 0,0 H 100 V 100 H 0 Z"
         transform="matrix(0.4914,0,0,-0.4914,23.647333,94.046067)"
         style="fill:url(#radialGradient11);stroke:none"
         id="path11" />
    </g>
    <path
       id="path13"
       d="m 8.50414,-15.94505 c 0,2.34852 -0.95177,4.47435 -2.4908,6.01338 C 4.47432,-8.39265 2.34851,-7.44092 0,-7.44092 c -2.34851,0 -4.47432,-0.95173 -6.01334,-2.49075 -1.53903,-1.53903 -2.4908,-3.66486 -2.4908,-6.01338 0,-2.34853 0.95177,-4.47434 2.4908,-6.01337 1.53902,-1.53903 3.66483,-2.49078 6.01334,-2.49078 2.34851,0 4.47429,0.95172 6.0133,2.49075 1.53904,1.53903 2.49084,3.66487 2.49084,6.0134 z"
       style="fill:none;stroke:#000000;stroke-width:0.3985;stroke-linecap:butt;stroke-linejoin:miter;stroke-miterlimit:10;stroke-dasharray:none;stroke-opacity:1"
       transform="matrix(1.3333333,0,0,-1.3333333,48.217333,48.216)" />
  </g>
</svg>
