<?xml version="1.0" encoding="UTF-8" standalone="no"?>
<!-- Created with Inkscape (http://www.inkscape.org/) -->

<svg
   version="1.1"
   id="svg1"
   width="185.98439"
   height="212.73912"
   viewBox="0 0 185.98438 212.73912"
   sodipodi:docname="skullNBones_large.svg"
   inkscape:version="1.3 (0e150ed6c4, 2023-07-21)"
   xmlns:inkscape="http://www.inkscape.org/namespaces/inkscape"
   xmlns:sodipodi="http://sodipodi.sourceforge.net/DTD/sodipodi-0.dtd"
   xmlns="http://www.w3.org/2000/svg"
   xmlns:svg="http://www.w3.org/2000/svg">
  <defs
     id="defs1" />
  <sodipodi:namedview
     id="namedview1"
     pagecolor="#ffffff"
     bordercolor="#666666"
     borderopacity="1.0"
     inkscape:showpageshadow="2"
     inkscape:pageopacity="0.0"
     inkscape:pagecheckerboard="0"
     inkscape:deskcolor="#d1d1d1"
     inkscape:zoom="7.3874129"
     inkscape:cx="79.933261"
     inkscape:cy="110.11974"
     inkscape:window-width="1366"
     inkscape:window-height="709"
     inkscape:window-x="0"
     inkscape:window-y="0"
     inkscape:window-maximized="1"
     inkscape:current-layer="g1">
    <inkscape:page
       x="0"
       y="0"
       inkscape:label="1"
       id="page1"
       width="185.98438"
       height="212.73912"
       margin="0"
       bleed="0" />
  </sodipodi:namedview>
  <g
     id="g1"
     inkscape:groupmode="layer"
     inkscape:label="1"
     transform="translate(82.754094,95.287866)">
    <path
       id="path1"
       d="m 99.491146,92.962126 -58.999996,-28.75 58.999996,-28.75 c 3.250004,-1.749992 4.750004,-5.75 3.000004,-9 l -6.000004,-11.75 c -1.5,-3.25 -5.75,-4.7500004 -8.75,-3 l -77.5,37.5 -77.499995,-37.5 c -3.25,-1.7499964 -7.250001,-0.25 -9.000001,3 l -5.75,11.75 c -1.75,3.25 -0.25,7.25 2.75,9 l 59.25,28.75 -59.25,28.75 c -3,1.5 -4.5,5.5 -2.75,8.750004 l 5.75,11.99999 c 1.75,3.25001 5.750001,4.75001 9.000001,3 l 77.499995,-37.749994 77.5,37.749994 c 3,1.75 7.25,0.25 8.75,-3 l 6.000004,-11.99999 c 1.75,-3.250004 0.25,-7.250004 -3.000004,-8.750004 z m -119.999996,-89.75 -2.250001,10.75 c -1.250005,5.25 2,10.5 6.750001,10.5 h 52.5 c 4.749996,0 7.749996,-5.25 6.749996,-10.5 l -2.249996,-10.75 c 17.249996,-9.4999996 28.999996,-25.999999 28.999996,-45.249998 0,-29.499999 -26.75,-53.249998 -59.75,-53.249998 -32.749996,0 -59.749995,23.749999 -59.749995,53.249998 0,19.249999 11.499999,35.7499984 28.999999,45.249998 z m 54,-51.999998 c 7.249996,0 13.249996,5.999999 13.249996,13.25 0,7.249999 -6,13.5 -13.249996,13.5 -7.250004,0 -13.5,-6.250001 -13.5,-13.5 0,-7.250001 6.249996,-13.25 13.5,-13.25 z m -46.5,0 c 7.2499984,0 13.24999835,5.999999 13.24999835,13.25 0,7.249999 -5.99999995,13.5 -13.24999835,13.5 -7.250001,0 -13.250001,-6.250001 -13.250001,-13.5 0,-7.250001 6,-13.25 13.250001,-13.25 z m 0,0"
       style="fill:#ffffff;fill-opacity:1;fill-rule:nonzero;stroke:none;stroke-width:21.3333"
       aria-label="ÿ" />
  </g>
</svg>
